<?xml version="1.0" encoding="utf-8"?>
<!-- Generator: Adobe Illustrator 19.0.1, SVG Export Plug-In . SVG Version: 6.00 Build 0)  -->
<svg version="1.1" id="Слой_1" xmlns="http://www.w3.org/2000/svg" xmlns:xlink="http://www.w3.org/1999/xlink" x="0px" y="0px"
	 viewBox="0 0 48 25" style="enable-background:new 0 0 48 25;" xml:space="preserve">
<style type="text/css">
	.st0{fill:#010202;}
</style>
<g>
	<g id="Hamburger">
		<g>
			<path class="st0" d="M45.9,10.4H15.8c-1.2,0-2.1,0.9-2.1,2.1v0c0,1.2,0.9,2.1,2.1,2.1h30.1c1.2,0,2.1-0.9,2.1-2.1v0
				C48,11.3,47.1,10.4,45.9,10.4z M45.9,20.8H29.5c-1.1,0-2.1,0.9-2.1,2.1s0.9,2.1,2.1,2.1h16.4c1.1,0,2.1-0.9,2.1-2.1
				S47.1,20.8,45.9,20.8z M48,2.1C48,0.9,47.1,0,45.9,0H2.1C0.9,0,0,0.9,0,2.1s0.9,2.1,2.1,2.1h43.8C47.1,4.2,48,3.2,48,2.1z"/>
		</g>
	</g>
</g>
</svg>
