<?xml version="1.0" encoding="utf-8"?>
<!-- Generator: Adobe Illustrator 19.0.1, SVG Export Plug-In . SVG Version: 6.00 Build 0)  -->
<svg version="1.1" id="Слой_1" xmlns="http://www.w3.org/2000/svg" xmlns:xlink="http://www.w3.org/1999/xlink" x="0px" y="0px"
	 viewBox="0 0 56.1 56" style="enable-background:new 0 0 56.1 56;" xml:space="preserve">
<g>
	<g id="Rocket_xA0_Обтравочный_контур">
		<g>
			<path d="M11.5,48.3c-1.1,2.3-1.8,3.8-7.9,4c0.2-5.9,1.3-6.5,3.5-7.6c0.9-0.5,2.1-1.1,3.4-2l-2.1-2.7c-1,0.8-1.9,1.2-2.8,1.6
				C1.9,43.4,0.1,45.2,0.1,54l0,1.8l1.7,0c9.3,0,11-2.1,12.7-5.7c0.4-0.8,0.6-1.3,1.2-2.4l-2.6-2.4C12.4,46.4,11.9,47.4,11.5,48.3z
				 M38.6,10.4c-3.9,0-7,3.1-7,7c0,3.9,3.1,7,7,7s7-3.1,7-7C45.6,13.5,42.4,10.4,38.6,10.4z M38.6,20.9c-1.9,0-3.5-1.6-3.5-3.5
				c0-1.9,1.6-3.5,3.5-3.5c1.9,0,3.5,1.6,3.5,3.5C42.1,19.3,40.5,20.9,38.6,20.9z M56,1.7c-0.1-0.9-0.7-1.6-1.6-1.6
				c0,0-9.8-0.7-19.2,2.8c-3.4,1.3-6.3,3.3-8.9,6.4c-2.2,2.6-4.4,7.2-6.3,11c-0.7,1.5-1.5,2.9-2.1,4H8.2c-0.5,0-1,0.2-1.3,0.6
				l-6.4,6.9c-0.4,0.5-0.5,1.1-0.4,1.7c0.2,0.6,0.7,1,1.3,1.2L11.8,37c0.7,0.9,1.9,2.2,3.8,4.3l4,4.4l2.1,9c0.1,0.6,0.6,1.1,1.2,1.3
				C23,56,23.2,56,23.4,56c0.4,0,0.8-0.1,1.1-0.4l6.5-6.4c0.4-0.3,0.6-0.8,0.6-1.3v-9c0.9-0.5,2.4-1.4,3.9-2.2c4-2.2,9.9-5,12.3-7.1
				c3.4-3.1,4.7-5.3,5.9-8.6C56.6,13,56,2.2,56,1.7z M50.4,19.7c-1.1,2.9-2.1,4.6-5,7.2c-2.2,1.9-8.1,4.7-11.7,6.7
				c-2.7,1.5-4.3,2.4-5,3c-0.4,0.3-0.6,0.8-0.6,1.4V47l-3.7,4l-1.6-6.6c-0.1-0.3-0.2-0.5-0.4-0.8c-3.2-3.6-8.1-8.9-8.4-9.4
				c-0.2-0.3-0.6-0.5-1-0.6l-8-1.8l3.9-4.1h9.9c0.6,0,1.2-0.3,1.5-0.8c0.8-1.2,1.7-3,2.7-5.1c1.8-3.5,3.9-8.1,5.9-10.3
				c2.3-2.6,4.6-4.3,7.5-5.4c6.4-2.4,13.1-2.7,16.1-2.6C52.6,6.7,52.5,14.2,50.4,19.7z"/>
		</g>
	</g>
</g>
</svg>
